<svg xmlns="http://www.w3.org/2000/svg" xmlns:xlink="http://www.w3.org/1999/xlink" viewBox="0 0 554.66 265.33"><defs><style>.cls-1{fill:#fff;}.cls-2{isolation:isolate;}.cls-3{fill:#353535;}.cls-4{mask:url(#mask);}.cls-5{opacity:0.95;mix-blend-mode:lighten;}.cls-6{fill:#ff0062;}.cls-7{fill:#ffce00;}</style><mask id="mask" x="0" y="0" width="554.66" height="265.33" maskUnits="userSpaceOnUse"><g transform="translate(-49.33 -107.34)"><path class="cls-1" d="M154,267.24l6.94,8.27A29.87,29.87,0,0,1,149.17,284,41.54,41.54,0,0,1,133.22,287a41.75,41.75,0,0,1-19.88-4.6,32.8,32.8,0,0,1-13.41-12.87,36.9,36.9,0,0,1-4.74-18.68,37.49,37.49,0,0,1,4.6-18.55,33,33,0,0,1,12.67-12.87,36.09,36.09,0,0,1,18.21-4.6,35.64,35.64,0,0,1,17.48,4.34,32.75,32.75,0,0,1,12.54,12.21,35.84,35.84,0,0,1,4.8,18.15l-56.17,10.94a21.8,21.8,0,0,0,9,11.34,28,28,0,0,0,15.28,4Q146.3,275.78,154,267.24Zm-35.29-38.56a21.26,21.26,0,0,0-8.21,8.61,27.1,27.1,0,0,0-2.94,12.88v1.33L152.83,243a21.64,21.64,0,0,0-7.74-12.54,22.35,22.35,0,0,0-14.41-4.8A23.29,23.29,0,0,0,118.75,228.68Z"/><path class="cls-1" d="M198.86,218a35.82,35.82,0,0,1,15.88-3.2v12.41a25.25,25.25,0,0,0-2.94-.13q-10.41,0-16.34,6.2T189.52,251v35.22H176.72V215.47H189v11.87A21.85,21.85,0,0,1,198.86,218Z"/><path class="cls-1" d="M290.78,215.47v61.1q0,18.54-9.21,27.42t-27.48,8.87A65.81,65.81,0,0,1,235,310.13a37.78,37.78,0,0,1-14.68-7.8l6.14-9.87a36.21,36.21,0,0,0,12.21,6.74,46.4,46.4,0,0,0,15,2.47q12.41,0,18.34-5.87T278,277.91v-5.6a28.33,28.33,0,0,1-11.14,8.21,37.1,37.1,0,0,1-14.34,2.73,38.63,38.63,0,0,1-18.34-4.34,32.23,32.23,0,0,1-12.87-12.14,36.3,36.3,0,0,1,0-35.62,31.8,31.8,0,0,1,12.87-12.07,39.14,39.14,0,0,1,18.34-4.27,37.5,37.5,0,0,1,14.88,2.94,27.63,27.63,0,0,1,11.27,8.67V215.47h12.14Zm-24.35,53.63a21.7,21.7,0,0,0,8.67-8.21A22.91,22.91,0,0,0,278.24,249q0-10.27-6.8-16.61T254,226q-10.81,0-17.61,6.34T229.55,249a22.89,22.89,0,0,0,3.14,11.94,21.68,21.68,0,0,0,8.67,8.21A26.48,26.48,0,0,0,254,272,26.21,26.21,0,0,0,266.44,269.11Z"/><path class="cls-1" d="M360.83,267.24l6.94,8.27A29.87,29.87,0,0,1,356,284a45,45,0,0,1-35.82-1.67,32.8,32.8,0,0,1-13.41-12.87A36.9,36.9,0,0,1,302,250.83a37.49,37.49,0,0,1,4.6-18.55,33,33,0,0,1,12.67-12.87,36.09,36.09,0,0,1,18.21-4.6A35.64,35.64,0,0,1,355,219.14a32.76,32.76,0,0,1,12.54,12.21,35.86,35.86,0,0,1,4.8,18.15l-56.17,10.94a21.8,21.8,0,0,0,9,11.34,28,28,0,0,0,15.27,4Q353.08,275.78,360.83,267.24Zm-35.29-38.56a21.26,21.26,0,0,0-8.2,8.61,27.1,27.1,0,0,0-2.94,12.88v1.33L359.62,243a21.65,21.65,0,0,0-7.74-12.54,22.35,22.35,0,0,0-14.41-4.8A23.29,23.29,0,0,0,325.54,228.68Zm5.8-28.15a8.05,8.05,0,1,1,5.6,2.27A7.6,7.6,0,0,1,331.34,200.53Z"/><path class="cls-1" d="M439.41,219.34A32.65,32.65,0,0,1,452.15,232a40.88,40.88,0,0,1,0,37.69,32.5,32.5,0,0,1-12.74,12.74A37.17,37.17,0,0,1,421,287a33.46,33.46,0,0,1-14.41-3.07A27.71,27.71,0,0,1,395.78,275v11.21H383.5v-99h12.81v39A27.19,27.19,0,0,1,407,217.68a33.87,33.87,0,0,1,14-2.87A37.19,37.19,0,0,1,439.41,219.34Zm-7.27,53.3a22.58,22.58,0,0,0,8.54-8.8,28.55,28.55,0,0,0,0-26,22.14,22.14,0,0,0-8.54-8.74,25.69,25.69,0,0,0-24.35,0,21.55,21.55,0,0,0-8.54,8.74,29.11,29.11,0,0,0,0,26,22,22,0,0,0,8.54,8.8A25.2,25.2,0,0,0,432.13,272.64Z"/><path class="cls-1" d="M520.12,267.24l6.94,8.27A29.87,29.87,0,0,1,515.25,284a45,45,0,0,1-35.82-1.67A32.8,32.8,0,0,1,466,269.51a36.9,36.9,0,0,1-4.74-18.68,37.49,37.49,0,0,1,4.6-18.55,33,33,0,0,1,12.67-12.87,36.09,36.09,0,0,1,18.21-4.6,35.64,35.64,0,0,1,17.48,4.34,32.75,32.75,0,0,1,12.54,12.21,35.85,35.85,0,0,1,4.8,18.15l-56.17,10.94a21.8,21.8,0,0,0,9,11.34,28,28,0,0,0,15.28,4Q512.38,275.78,520.12,267.24Zm-35.29-38.56a21.26,21.26,0,0,0-8.21,8.61,27.09,27.09,0,0,0-2.94,12.88v1.33L518.92,243a21.64,21.64,0,0,0-7.74-12.54,22.35,22.35,0,0,0-14.41-4.8A23.29,23.29,0,0,0,484.83,228.68Zm5.8-28.15a8.05,8.05,0,1,1,5.6,2.27A7.61,7.61,0,0,1,490.63,200.53Z"/></g></mask></defs><title>ergebe_text</title><g class="cls-2"><g id="Layer_3" data-name="Layer 3"><circle class="cls-3" cx="421.99" cy="132.66" r="132.66"/></g><g id="Layer_2" data-name="Layer 2"><g class="cls-4"><g class="cls-5"><circle class="cls-6" cx="132.66" cy="132.66" r="132.66"/><circle class="cls-7" cx="267.33" cy="132.66" r="132.66"/><circle class="cls-1" cx="421.99" cy="132.66" r="132.66"/></g></g></g></g></svg>